<svg width="0" height="0" class="hidden">
  <symbol version="1.0" xmlns="http://www.w3.org/2000/svg" preserveAspectRatio="xMidYMid meet" viewBox="0 0 48.000000 48.000000" id="instagram">
    <g transform="translate(0.000000,48.000000) scale(0.100000,-0.100000)" fill="#0000ff" stroke="none">
      <path d="M95 451 c-11 -5 -31 -21 -45 -36 -24 -26 -25 -31 -25 -176 l0 -149
33 -32 32 -33 150 0 150 0 32 33 33 32 0 150 0 150 -33 32 -32 33 -138 2 c-75
1 -146 -1 -157 -6z m290 -23 c45 -20 55 -55 55 -188 0 -188 -12 -200 -201
-200 -187 0 -199 12 -199 203 1 131 9 160 51 183 31 17 257 19 294 2z"></path>
      <path d="M344 389 c-10 -17 13 -36 27 -22 12 12 4 33 -11 33 -5 0 -12 -5 -16
-11z"></path>
      <path d="M195 351 c-45 -20 -70 -60 -70 -112 0 -42 5 -53 33 -81 47 -48 117
-48 164 0 28 28 33 39 33 82 0 42 -5 54 -31 81 -33 33 -92 46 -129 30z m94
-25 c47 -25 63 -83 37 -135 -35 -66 -137 -66 -172 0 -47 91 44 182 135 135z"></path>
    </g>
  </symbol>
  <symbol version="1.0" xmlns="http://www.w3.org/2000/svg" preserveAspectRatio="xMidYMid meet" viewBox="0 0 24.000000 24.000000" id="phone-24">
    <g transform="translate(0.000000,24.000000) scale(0.100000,-0.100000)" fill="#0000ff" stroke="none">
      <path d="M33 175 c3 -20 15 -51 27 -70 22 -35 90 -75 129 -75 18 0 22 5 19 28
-3 30 -38 43 -63 22 -29 -24 -89 36 -65 65 6 8 10 24 8 37 -2 17 -11 24 -32
26 -28 4 -29 3 -23 -33z"></path>
    </g>
  </symbol>
  <symbol version="1.0" xmlns="http://www.w3.org/2000/svg" preserveAspectRatio="xMidYMid meet" viewBox="0 0 48.000000 48.000000" id="phone-48">
    <g transform="translate(0.000000,48.000000) scale(0.100000,-0.100000)" fill="#000000" stroke="none">
      <path d="M64 405 c-10 -24 4 -96 30 -150 48 -104 166 -186 270 -189 l51 -1 0
50 0 50 -49 8 c-45 7 -51 6 -75 -17 l-27 -26 -37 26 c-21 14 -51 44 -68 66
l-29 42 25 26 c24 25 25 31 18 76 l-8 49 -48 3 c-36 2 -49 -1 -53 -13z"></path>
    </g>
  </symbol>
  <symbol version="1.0" xmlns="http://www.w3.org/2000/svg" preserveAspectRatio="xMidYMid meet" viewBox="0 0 32.000000 32.000000" id="puppy">
    <g transform="translate(0.000000,32.000000) scale(0.100000,-0.100000)" fill="#0000ff" stroke="none">
      <path d="M112 293 c-27 -3 -36 -11 -48 -38 -18 -44 -18 -45 5 -45 22 0 34 -45
16 -60 -8 -6 -12 -35 -12 -75 l1 -65 86 0 86 0 1 65 c0 40 -4 69 -12 75 -18
15 -6 60 16 60 23 0 23 1 5 45 -10 23 -22 35 -34 35 -11 0 -32 2 -48 4 -16 2
-44 1 -62 -1z m76 -26 c6 -7 14 -32 18 -55 6 -38 5 -41 -20 -48 -14 -3 -38 -3
-52 0 -25 7 -26 10 -20 48 8 48 21 68 46 68 10 0 22 -6 28 -13z m-92 -34 c-11
-11 -17 4 -9 23 7 18 8 18 11 1 2 -10 1 -21 -2 -24z m138 21 c8 -21 8 -24 -3
-24 -5 0 -11 9 -14 20 -6 24 8 27 17 4z m-9 -128 c7 -12 5 -24 -7 -46 -14 -25
-15 -30 -3 -30 8 0 15 -4 15 -10 0 -5 -14 -10 -31 -10 -30 0 -31 2 -25 30 5
25 2 30 -14 30 -16 0 -19 -5 -13 -30 5 -28 4 -30 -26 -30 -17 0 -31 5 -31 10
0 6 7 10 16 10 14 0 14 2 0 22 -18 25 -20 50 -7 64 17 16 114 9 126 -10z"></path>
      <path d="M143 208 c2 -7 10 -13 17 -13 7 0 15 6 18 13 2 7 -5 12 -18 12 -13 0
-20 -5 -17 -12z"></path>
    </g>
  </symbol>
  <symbol version="1.0" xmlns="http://www.w3.org/2000/svg" preserveAspectRatio="xMidYMid meet" viewBox="0 0 24.000000 24.000000" id="question-mark-24">
    <g transform="translate(0.000000,24.000000) scale(0.100000,-0.100000)" fill="#0000ff" stroke="none">
      <path d="M80 200 c-20 -20 -26 -40 -12 -40 4 0 13 9 20 20 14 22 42 26 60 8
18 -18 15 -37 -13 -70 -25 -29 -32 -48 -17 -48 13 1 62 73 62 92 0 24 -35 58
-60 58 -11 0 -29 -9 -40 -20z"></path>
      <path d="M110 30 c0 -5 5 -10 10 -10 6 0 10 5 10 10 0 6 -4 10 -10 10 -5 0
-10 -4 -10 -10z"></path>
    </g>
  </symbol>
  <symbol version="1.0" xmlns="http://www.w3.org/2000/svg" preserveAspectRatio="xMidYMid meet" viewBox="0 0 48.000000 48.000000" id="question-mark-48">
    <g transform="translate(0.000000,48.000000) scale(0.100000,-0.100000)" fill="#000000" stroke="none">
      <path d="M195 431 c-30 -13 -63 -52 -70 -83 -6 -24 -4 -28 14 -28 12 0 21 6
21 15 0 9 11 27 25 40 32 33 78 33 110 0 37 -36 33 -74 -13 -126 -63 -72 -77
-109 -42 -109 11 0 20 6 20 13 0 7 21 37 48 67 42 48 47 59 47 102 0 40 -5 53
-31 79 -33 33 -92 46 -129 30z"></path>
      <path d="M220 60 c0 -13 7 -20 20 -20 13 0 20 7 20 20 0 13 -7 20 -20 20 -13
0 -20 -7 -20 -20z"></path>
    </g>
  </symbol>
  <symbol version="1.0" xmlns="http://www.w3.org/2000/svg" preserveAspectRatio="xMidYMid meet" viewBox="0 0 48.000000 48.000000" id="shoppingcart">
    <g transform="translate(0.000000,48.000000) scale(0.100000,-0.100000)" fill="#0000ff" stroke="none">
      <path d="M30 421 c0 -6 14 -11 32 -13 31 -3 32 -4 53 -100 l22 -96 -28 -6
c-48 -9 -51 -80 -4 -92 14 -3 25 -15 27 -26 7 -49 69 -48 76 1 5 30 59 30 64
0 7 -49 69 -49 76 0 2 11 10 21 18 21 8 0 14 4 14 10 0 5 -59 11 -142 12
l-143 3 0 25 0 25 140 5 140 5 32 65 c17 36 32 75 32 88 1 22 0 22 -144 22
-90 0 -145 -4 -145 -10 0 -6 52 -10 136 -10 l135 0 -7 -22 c-3 -13 -17 -45
-31 -71 l-24 -48 -101 3 -101 3 -22 95 c-11 52 -24 101 -29 108 -8 14 -76 17
-76 3z m156 -322 c10 -17 -13 -36 -27 -22 -12 12 -4 33 11 33 5 0 12 -5 16
-11z m140 0 c10 -17 -13 -36 -27 -22 -12 12 -4 33 11 33 5 0 12 -5 16 -11z"></path>
      <path d="M250 280 c0 -22 5 -40 10 -40 6 0 10 18 10 40 0 22 -4 40 -10 40 -5
0 -10 -18 -10 -40z"></path>
      <path d="M200 280 c0 -16 5 -30 10 -30 6 0 10 14 10 30 0 17 -4 30 -10 30 -5
0 -10 -13 -10 -30z"></path>
      <path d="M300 280 c0 -16 5 -30 10 -30 6 0 10 14 10 30 0 17 -4 30 -10 30 -5
0 -10 -13 -10 -30z"></path>
    </g>
  </symbol>
  <symbol viewBox="0 0 0 0" id="sprite">
    <symbol version="1.0" xmlns="http://www.w3.org/2000/svg" preserveAspectRatio="xMidYMid meet" viewBox="0 0 32.000000 32.000000" id="puppy">
      <g transform="translate(0.000000,32.000000) scale(0.100000,-0.100000)" fill="#0000ff" stroke="none">
        <path d="M112 293 c-27 -3 -36 -11 -48 -38 -18 -44 -18 -45 5 -45 22 0 34 -45
16 -60 -8 -6 -12 -35 -12 -75 l1 -65 86 0 86 0 1 65 c0 40 -4 69 -12 75 -18
15 -6 60 16 60 23 0 23 1 5 45 -10 23 -22 35 -34 35 -11 0 -32 2 -48 4 -16 2
-44 1 -62 -1z m76 -26 c6 -7 14 -32 18 -55 6 -38 5 -41 -20 -48 -14 -3 -38 -3
-52 0 -25 7 -26 10 -20 48 8 48 21 68 46 68 10 0 22 -6 28 -13z m-92 -34 c-11
-11 -17 4 -9 23 7 18 8 18 11 1 2 -10 1 -21 -2 -24z m138 21 c8 -21 8 -24 -3
-24 -5 0 -11 9 -14 20 -6 24 8 27 17 4z m-9 -128 c7 -12 5 -24 -7 -46 -14 -25
-15 -30 -3 -30 8 0 15 -4 15 -10 0 -5 -14 -10 -31 -10 -30 0 -31 2 -25 30 5
25 2 30 -14 30 -16 0 -19 -5 -13 -30 5 -28 4 -30 -26 -30 -17 0 -31 5 -31 10
0 6 7 10 16 10 14 0 14 2 0 22 -18 25 -20 50 -7 64 17 16 114 9 126 -10z"></path>
        <path d="M143 208 c2 -7 10 -13 17 -13 7 0 15 6 18 13 2 7 -5 12 -18 12 -13 0
-20 -5 -17 -12z"></path>
      </g>
    </symbol>
    <symbol version="1.0" xmlns="http://www.w3.org/2000/svg" preserveAspectRatio="xMidYMid meet" viewBox="0 0 48.000000 48.000000" id="question-mark-48">
      <g transform="translate(0.000000,48.000000) scale(0.100000,-0.100000)" fill="#000000" stroke="none">
        <path d="M195 431 c-30 -13 -63 -52 -70 -83 -6 -24 -4 -28 14 -28 12 0 21 6
21 15 0 9 11 27 25 40 32 33 78 33 110 0 37 -36 33 -74 -13 -126 -63 -72 -77
-109 -42 -109 11 0 20 6 20 13 0 7 21 37 48 67 42 48 47 59 47 102 0 40 -5 53
-31 79 -33 33 -92 46 -129 30z"></path>
        <path d="M220 60 c0 -13 7 -20 20 -20 13 0 20 7 20 20 0 13 -7 20 -20 20 -13
0 -20 -7 -20 -20z"></path>
      </g>
    </symbol>
    <symbol version="1.0" xmlns="http://www.w3.org/2000/svg" preserveAspectRatio="xMidYMid meet" viewBox="0 0 48.000000 48.000000" id="shoppingcart">
      <g transform="translate(0.000000,48.000000) scale(0.100000,-0.100000)" fill="#0000ff" stroke="none">
        <path d="M30 421 c0 -6 14 -11 32 -13 31 -3 32 -4 53 -100 l22 -96 -28 -6
c-48 -9 -51 -80 -4 -92 14 -3 25 -15 27 -26 7 -49 69 -48 76 1 5 30 59 30 64
0 7 -49 69 -49 76 0 2 11 10 21 18 21 8 0 14 4 14 10 0 5 -59 11 -142 12
l-143 3 0 25 0 25 140 5 140 5 32 65 c17 36 32 75 32 88 1 22 0 22 -144 22
-90 0 -145 -4 -145 -10 0 -6 52 -10 136 -10 l135 0 -7 -22 c-3 -13 -17 -45
-31 -71 l-24 -48 -101 3 -101 3 -22 95 c-11 52 -24 101 -29 108 -8 14 -76 17
-76 3z m156 -322 c10 -17 -13 -36 -27 -22 -12 12 -4 33 11 33 5 0 12 -5 16
-11z m140 0 c10 -17 -13 -36 -27 -22 -12 12 -4 33 11 33 5 0 12 -5 16 -11z"></path>
        <path d="M250 280 c0 -22 5 -40 10 -40 6 0 10 18 10 40 0 22 -4 40 -10 40 -5
0 -10 -18 -10 -40z"></path>
        <path d="M200 280 c0 -16 5 -30 10 -30 6 0 10 14 10 30 0 17 -4 30 -10 30 -5
0 -10 -13 -10 -30z"></path>
        <path d="M300 280 c0 -16 5 -30 10 -30 6 0 10 14 10 30 0 17 -4 30 -10 30 -5
0 -10 -13 -10 -30z"></path>
      </g>
    </symbol>
    <symbol version="1.0" xmlns="http://www.w3.org/2000/svg" preserveAspectRatio="xMidYMid meet" viewBox="0 0 50.000000 50.000000" id="tiktok">
      <g transform="translate(0.000000,50.000000) scale(0.100000,-0.100000)" fill="#0000ff" stroke="none">
        <path d="M56 444 c-24 -23 -24 -365 0 -388 23 -24 365 -24 388 0 24 23 24 365
0 388 -23 24 -365 24 -388 0z m379 -194 l0 -185 -185 0 -185 0 -3 175 c-1 96
0 180 3 187 3 11 44 13 187 11 l183 -3 0 -185z"></path>
        <path d="M250 291 c0 -87 -3 -111 -16 -122 -11 -9 -20 -10 -32 -2 -24 15 -21
46 6 58 15 7 22 18 22 39 0 27 -2 28 -32 22 -18 -3 -43 -17 -55 -32 -76 -85
47 -205 133 -130 24 20 28 32 32 89 l4 65 34 -5 c32 -5 34 -4 34 23 0 22 -8
33 -31 47 -17 9 -33 26 -36 37 -4 14 -14 20 -34 20 l-29 0 0 -109z m58 59 c13
-16 29 -30 37 -30 8 0 15 -7 15 -15 0 -8 -6 -15 -14 -15 -7 0 -19 7 -26 15
-23 28 -30 15 -30 -60 0 -67 -3 -79 -25 -100 -13 -14 -36 -25 -50 -25 -33 0
-75 42 -75 75 0 26 39 75 60 75 17 0 11 -19 -9 -30 -25 -13 -35 -44 -22 -69
16 -28 48 -35 76 -17 24 16 25 21 25 121 0 58 4 105 8 105 5 0 18 -13 30 -30z"></path>
      </g>
    </symbol>
    <symbol version="1.0" xmlns="http://www.w3.org/2000/svg" preserveAspectRatio="xMidYMid meet" viewBox="0 0 50.000000 50.000000" id="twitter">
      <g transform="translate(0.000000,50.000000) scale(0.100000,-0.100000)" fill="#0000ff" stroke="none">
        <path d="M316 439 c-38 -11 -63 -35 -76 -75 -7 -21 -18 -34 -28 -34 -29 1
-106 40 -139 72 -29 28 -32 29 -41 12 -5 -11 -10 -49 -10 -87 0 -52 5 -73 20
-92 11 -14 16 -29 13 -35 -4 -6 9 -26 29 -46 l35 -35 -25 -9 c-14 -6 -41 -10
-60 -10 -91 0 12 -53 114 -58 54 -3 86 0 119 13 92 35 167 132 179 233 5 31
15 57 33 75 19 21 23 30 13 36 -7 4 -12 12 -10 17 4 12 -11 15 -40 7 -13 -3
-33 -1 -45 5 -37 17 -51 19 -81 11z m89 -40 c3 -4 13 -5 23 -2 14 6 15 4 5 -9
-15 -18 -7 -29 15 -21 15 4 16 3 1 -9 -9 -7 -18 -36 -22 -65 -3 -28 -15 -69
-26 -90 -23 -47 -90 -109 -137 -129 -36 -15 -156 -18 -189 -5 -17 7 -14 10 23
21 37 12 72 36 61 43 -2 1 -17 9 -33 17 -33 17 -46 40 -22 40 9 0 16 5 16 10
0 6 -6 10 -14 10 -8 0 -27 15 -42 32 -27 32 -27 33 -6 36 27 4 27 7 2 39 -18
23 -28 73 -14 73 3 0 20 -11 38 -25 41 -31 91 -52 136 -57 33 -3 34 -1 36 30
2 37 35 79 68 84 24 4 73 -10 81 -23z"></path>
      </g>
    </symbol>
    <symbol version="1.0" xmlns="http://www.w3.org/2000/svg" preserveAspectRatio="xMidYMid meet" viewBox="0 0 31.000000 31.000000" id="Why-adoptions">
      <g transform="translate(0.000000,31.000000) scale(0.100000,-0.100000)" fill="#0000ff" stroke="none">
        <path d="M198 229 c-10 -5 -18 -18 -18 -27 1 -16 2 -16 14 1 16 21 49 22 66 2
11 -13 9 -20 -13 -43 -28 -29 -35 -52 -17 -52 6 0 10 6 10 13 0 8 9 22 20 32
50 45 -4 108 -62 74z"></path>
        <path d="M21 145 c1 -16 2 -17 6 -2 2 9 11 17 19 17 19 0 18 -7 -5 -36 -13
-17 -21 -20 -24 -12 -3 8 -6 6 -6 -4 -1 -10 4 -18 9 -18 6 0 10 -11 10 -24 0
-26 16 -36 60 -36 44 0 60 10 60 36 0 13 5 24 10 24 6 0 10 8 9 18 0 10 -3 12
-6 4 -3 -8 -11 -5 -24 12 -23 29 -24 36 -5 36 8 0 17 -8 19 -17 4 -15 5 -14 6
2 1 19 -5 21 -69 21 -64 0 -70 -2 -69 -21z m104 -19 c21 -31 16 -80 -7 -84
-11 -2 -18 3 -18 12 0 9 -4 16 -10 16 -5 0 -10 -7 -10 -16 0 -9 -7 -14 -17
-12 -24 4 -29 53 -8 84 20 31 50 31 70 0z"></path>
        <path d="M220 75 c0 -8 5 -15 10 -15 6 0 10 7 10 15 0 8 -4 15 -10 15 -5 0
-10 -7 -10 -15z"></path>
      </g>
    </symbol>
    <symbol version="1.0" xmlns="http://www.w3.org/2000/svg" preserveAspectRatio="xMidYMid meet" viewBox="0 0 50.000000 50.000000" id="arrow-50">
      <g transform="translate(0.000000,50.000000) scale(0.100000,-0.100000)" fill="#000000" stroke="none">
        <path d="M270 345 l0 -45 -115 0 -115 0 0 -50 0 -50 115 0 115 0 0 -45 c0 -25
3 -45 7 -45 9 0 183 133 183 140 0 7 -174 140 -183 140 -4 0 -7 -20 -7 -45z
m159 -95 c0 -3 -31 -29 -70 -58 l-69 -53 0 40 0 41 -115 0 -115 0 0 30 0 30
115 0 115 0 0 41 0 40 69 -53 c39 -29 70 -55 70 -58z"></path>
      </g>
    </symbol>
    <symbol version="1.0" xmlns="http://www.w3.org/2000/svg" preserveAspectRatio="xMidYMid meet" viewBox="0 0 24.000000 24.000000" id="chevron">
      <g transform="translate(0.000000,24.000000) scale(0.100000,-0.100000)" fill="#0000ff" stroke="none">
        <path d="M20 162 c0 -14 85 -92 101 -92 15 0 99 79 99 93 0 17 -27 4 -62 -30
l-38 -37 -38 37 c-35 35 -62 47 -62 29z"></path>
      </g>
    </symbol>
    <symbol version="1.0" xmlns="http://www.w3.org/2000/svg" preserveAspectRatio="xMidYMid meet" viewBox="0 0 41.000000 41.000000" id="dog-40">
      <g transform="translate(0.000000,41.000000) scale(0.100000,-0.100000)" fill="#0000ff" stroke="none">
        <path d="M57 363 c-7 -11 -27 -122 -27 -150 0 -16 6 -23 20 -23 17 0 20 -7 20
-49 0 -69 19 -81 130 -81 111 0 130 12 130 81 0 42 3 49 20 49 14 0 20 7 20
23 0 33 -20 141 -28 149 -4 4 -36 0 -71 -9 -54 -14 -74 -14 -123 -4 -32 7 -65
14 -72 17 -8 3 -16 2 -19 -3z m79 -36 c6 -5 -79 -116 -88 -117 -4 0 -6 6 -3
13 2 6 9 37 15 69 l11 56 31 -9 c17 -4 32 -10 34 -12z m208 -50 c7 -37 11 -67
7 -67 -6 1 -68 78 -84 106 -5 9 2 16 25 22 18 5 34 8 35 7 1 0 9 -31 17 -68z
m-70 -4 c39 -50 46 -65 46 -103 0 -63 -21 -90 -71 -90 -27 0 -39 4 -39 14 0 8
5 18 10 21 19 12 10 22 -20 22 -30 0 -39 -10 -20 -22 6 -3 10 -13 10 -21 0
-10 -12 -14 -39 -14 -50 0 -71 27 -71 90 0 38 7 53 46 103 36 45 51 57 74 57
23 0 38 -12 74 -57z"></path>
        <path d="M136 203 c-11 -11 -6 -23 9 -23 8 0 15 4 15 9 0 13 -16 22 -24 14z"></path>
        <path d="M246 203 c-11 -11 -6 -23 9 -23 8 0 15 4 15 9 0 13 -16 22 -24 14z"></path>
      </g>
    </symbol>
  </symbol>
  <symbol version="1.0" xmlns="http://www.w3.org/2000/svg" preserveAspectRatio="xMidYMid meet" viewBox="0 0 50.000000 50.000000" id="tiktok">
    <g transform="translate(0.000000,50.000000) scale(0.100000,-0.100000)" fill="#0000ff" stroke="none">
      <path d="M56 444 c-24 -23 -24 -365 0 -388 23 -24 365 -24 388 0 24 23 24 365
0 388 -23 24 -365 24 -388 0z m379 -194 l0 -185 -185 0 -185 0 -3 175 c-1 96
0 180 3 187 3 11 44 13 187 11 l183 -3 0 -185z"></path>
      <path d="M250 291 c0 -87 -3 -111 -16 -122 -11 -9 -20 -10 -32 -2 -24 15 -21
46 6 58 15 7 22 18 22 39 0 27 -2 28 -32 22 -18 -3 -43 -17 -55 -32 -76 -85
47 -205 133 -130 24 20 28 32 32 89 l4 65 34 -5 c32 -5 34 -4 34 23 0 22 -8
33 -31 47 -17 9 -33 26 -36 37 -4 14 -14 20 -34 20 l-29 0 0 -109z m58 59 c13
-16 29 -30 37 -30 8 0 15 -7 15 -15 0 -8 -6 -15 -14 -15 -7 0 -19 7 -26 15
-23 28 -30 15 -30 -60 0 -67 -3 -79 -25 -100 -13 -14 -36 -25 -50 -25 -33 0
-75 42 -75 75 0 26 39 75 60 75 17 0 11 -19 -9 -30 -25 -13 -35 -44 -22 -69
16 -28 48 -35 76 -17 24 16 25 21 25 121 0 58 4 105 8 105 5 0 18 -13 30 -30z"></path>
    </g>
  </symbol>
  <symbol version="1.0" xmlns="http://www.w3.org/2000/svg" preserveAspectRatio="xMidYMid meet" viewBox="0 0 31.000000 31.000000" id="Why-adoptions">
    <g transform="translate(0.000000,31.000000) scale(0.100000,-0.100000)" fill="#0000ff" stroke="none">
      <path d="M198 229 c-10 -5 -18 -18 -18 -27 1 -16 2 -16 14 1 16 21 49 22 66 2
11 -13 9 -20 -13 -43 -28 -29 -35 -52 -17 -52 6 0 10 6 10 13 0 8 9 22 20 32
50 45 -4 108 -62 74z"></path>
      <path d="M21 145 c1 -16 2 -17 6 -2 2 9 11 17 19 17 19 0 18 -7 -5 -36 -13
-17 -21 -20 -24 -12 -3 8 -6 6 -6 -4 -1 -10 4 -18 9 -18 6 0 10 -11 10 -24 0
-26 16 -36 60 -36 44 0 60 10 60 36 0 13 5 24 10 24 6 0 10 8 9 18 0 10 -3 12
-6 4 -3 -8 -11 -5 -24 12 -23 29 -24 36 -5 36 8 0 17 -8 19 -17 4 -15 5 -14 6
2 1 19 -5 21 -69 21 -64 0 -70 -2 -69 -21z m104 -19 c21 -31 16 -80 -7 -84
-11 -2 -18 3 -18 12 0 9 -4 16 -10 16 -5 0 -10 -7 -10 -16 0 -9 -7 -14 -17
-12 -24 4 -29 53 -8 84 20 31 50 31 70 0z"></path>
      <path d="M220 75 c0 -8 5 -15 10 -15 6 0 10 7 10 15 0 8 -4 15 -10 15 -5 0
-10 -7 -10 -15z"></path>
    </g>
  </symbol>
  <symbol version="1.0" xmlns="http://www.w3.org/2000/svg" preserveAspectRatio="xMidYMid meet" viewBox="0 0 50.000000 50.000000" id="twitter">
    <g transform="translate(0.000000,50.000000) scale(0.100000,-0.100000)" fill="#0000ff" stroke="none">
      <path d="M316 439 c-38 -11 -63 -35 -76 -75 -7 -21 -18 -34 -28 -34 -29 1
-106 40 -139 72 -29 28 -32 29 -41 12 -5 -11 -10 -49 -10 -87 0 -52 5 -73 20
-92 11 -14 16 -29 13 -35 -4 -6 9 -26 29 -46 l35 -35 -25 -9 c-14 -6 -41 -10
-60 -10 -91 0 12 -53 114 -58 54 -3 86 0 119 13 92 35 167 132 179 233 5 31
15 57 33 75 19 21 23 30 13 36 -7 4 -12 12 -10 17 4 12 -11 15 -40 7 -13 -3
-33 -1 -45 5 -37 17 -51 19 -81 11z m89 -40 c3 -4 13 -5 23 -2 14 6 15 4 5 -9
-15 -18 -7 -29 15 -21 15 4 16 3 1 -9 -9 -7 -18 -36 -22 -65 -3 -28 -15 -69
-26 -90 -23 -47 -90 -109 -137 -129 -36 -15 -156 -18 -189 -5 -17 7 -14 10 23
21 37 12 72 36 61 43 -2 1 -17 9 -33 17 -33 17 -46 40 -22 40 9 0 16 5 16 10
0 6 -6 10 -14 10 -8 0 -27 15 -42 32 -27 32 -27 33 -6 36 27 4 27 7 2 39 -18
23 -28 73 -14 73 3 0 20 -11 38 -25 41 -31 91 -52 136 -57 33 -3 34 -1 36 30
2 37 35 79 68 84 24 4 73 -10 81 -23z"></path>
    </g>
  </symbol>
  <symbol version="1.0" xmlns="http://www.w3.org/2000/svg" preserveAspectRatio="xMidYMid meet" viewBox="0 0 50.000000 50.000000" id="arrow-50">
    <g transform="translate(0.000000,50.000000) scale(0.100000,-0.100000)" fill="#000000" stroke="none">
      <path d="M270 345 l0 -45 -115 0 -115 0 0 -50 0 -50 115 0 115 0 0 -45 c0 -25
3 -45 7 -45 9 0 183 133 183 140 0 7 -174 140 -183 140 -4 0 -7 -20 -7 -45z
m159 -95 c0 -3 -31 -29 -70 -58 l-69 -53 0 40 0 41 -115 0 -115 0 0 30 0 30
115 0 115 0 0 41 0 40 69 -53 c39 -29 70 -55 70 -58z"></path>
    </g>
  </symbol>
  <symbol version="1.0" xmlns="http://www.w3.org/2000/svg" preserveAspectRatio="xMidYMid meet" viewBox="0 0 24.000000 24.000000" id="chevron">
    <g transform="translate(0.000000,24.000000) scale(0.100000,-0.100000)" fill="#000000" stroke="none">
      <path d="M20 162 c0 -14 85 -92 101 -92 15 0 99 79 99 93 0 17 -27 4 -62 -30
l-38 -37 -38 37 c-35 35 -62 47 -62 29z"></path>
    </g>
  </symbol>
  <symbol version="1.0" xmlns="http://www.w3.org/2000/svg" preserveAspectRatio="xMidYMid meet" viewBox="0 0 41.000000 41.000000" id="dog-40">
    <g transform="translate(0.000000,41.000000) scale(0.100000,-0.100000)" fill="#000000" stroke="none">
      <path d="M57 363 c-7 -11 -27 -122 -27 -150 0 -16 6 -23 20 -23 17 0 20 -7 20
-49 0 -69 19 -81 130 -81 111 0 130 12 130 81 0 42 3 49 20 49 14 0 20 7 20
23 0 33 -20 141 -28 149 -4 4 -36 0 -71 -9 -54 -14 -74 -14 -123 -4 -32 7 -65
14 -72 17 -8 3 -16 2 -19 -3z m79 -36 c6 -5 -79 -116 -88 -117 -4 0 -6 6 -3
13 2 6 9 37 15 69 l11 56 31 -9 c17 -4 32 -10 34 -12z m208 -50 c7 -37 11 -67
7 -67 -6 1 -68 78 -84 106 -5 9 2 16 25 22 18 5 34 8 35 7 1 0 9 -31 17 -68z
m-70 -4 c39 -50 46 -65 46 -103 0 -63 -21 -90 -71 -90 -27 0 -39 4 -39 14 0 8
5 18 10 21 19 12 10 22 -20 22 -30 0 -39 -10 -20 -22 6 -3 10 -13 10 -21 0
-10 -12 -14 -39 -14 -50 0 -71 27 -71 90 0 38 7 53 46 103 36 45 51 57 74 57
23 0 38 -12 74 -57z"></path>
      <path d="M136 203 c-11 -11 -6 -23 9 -23 8 0 15 4 15 9 0 13 -16 22 -24 14z"></path>
      <path d="M246 203 c-11 -11 -6 -23 9 -23 8 0 15 4 15 9 0 13 -16 22 -24 14z"></path>
    </g>
  </symbol>
  <symbol version="1.0" xmlns="http://www.w3.org/2000/svg" preserveAspectRatio="xMidYMid meet" viewBox="0 0 52.000000 52.000000" id="dropdown">
    <g transform="translate(0.000000,52.000000) scale(0.100000,-0.100000)" fill="#0000ff" stroke="none">
      <path d="M0 360 c0 -19 7 -20 260 -20 253 0 260 1 260 20 0 19 -7 20 -260 20
-253 0 -260 -1 -260 -20z"></path>
      <path d="M0 260 c0 -19 7 -20 260 -20 253 0 260 1 260 20 0 19 -7 20 -260 20
-253 0 -260 -1 -260 -20z"></path>
      <path d="M0 160 c0 -19 7 -20 260 -20 253 0 260 1 260 20 0 19 -7 20 -260 20
-253 0 -260 -1 -260 -20z"></path>
      <path d="M221 41 c19 -22 36 -39 39 -39 3 0 20 17 39 39 l33 39 -72 0 -72 0
33 -39z"></path>
    </g>
  </symbol>
  <symbol version="1.0" xmlns="http://www.w3.org/2000/svg" preserveAspectRatio="xMidYMid meet" viewBox="0 0 50.000000 50.000000" id="facebook">
    <g transform="translate(0.000000,50.000000) scale(0.100000,-0.100000)" fill="#0000ff" stroke="none">
      <path d="M56 444 c-24 -23 -24 -365 0 -388 23 -24 365 -24 388 0 24 23 24 365
0 388 -23 24 -365 24 -388 0z m379 -194 l0 -185 -52 -3 -53 -3 0 70 c0 63 2
71 19 71 11 0 21 9 25 23 10 38 7 47 -19 47 -16 0 -25 6 -25 15 0 9 9 15 25
15 21 0 25 5 25 29 0 31 -14 41 -60 41 -33 0 -70 -40 -70 -76 0 -15 -6 -24
-15 -24 -10 0 -15 -11 -15 -35 0 -24 5 -35 15 -35 12 0 15 -14 15 -70 l0 -71
-92 3 -93 3 -3 175 c-1 96 0 180 3 187 3 11 44 13 187 11 l183 -3 0 -185z
m-78 83 c2 -6 -6 -13 -19 -15 -18 -2 -24 -10 -26 -35 -3 -29 0 -33 22 -33 18
0 24 -4 20 -15 -4 -8 -15 -15 -25 -15 -17 0 -19 -8 -19 -80 0 -73 -2 -80 -20
-80 -18 0 -20 7 -20 80 0 64 -3 80 -15 80 -8 0 -15 7 -15 15 0 8 7 15 15 15
10 0 15 10 15 34 0 19 7 42 16 51 18 18 65 17 71 -2z"></path>
    </g>
  </symbol>
  <symbol version="1.0" xmlns="http://www.w3.org/2000/svg" preserveAspectRatio="xMidYMid meet" viewBox="0 0 24.000000 24.000000" id="home-24">
    <g transform="translate(0.000000,24.000000) scale(0.100000,-0.100000)" fill="#0000ff" stroke="none">
      <path d="M60 165 c-24 -25 -39 -45 -32 -45 8 0 12 -16 12 -45 0 -43 1 -45 30
-45 27 0 30 3 30 30 0 23 4 30 20 30 16 0 20 -7 20 -30 0 -27 3 -30 30 -30 29
0 30 2 30 45 0 27 5 45 12 45 6 0 4 7 -5 18 -10 10 -17 28 -17 40 0 12 -4 22
-10 22 -5 0 -10 -5 -10 -12 0 -6 -7 -4 -18 5 -28 26 -44 21 -92 -28z m92 -2
c22 -21 28 -36 28 -70 0 -24 -4 -43 -10 -43 -5 0 -10 14 -10 30 0 28 -2 30
-40 30 -38 0 -40 -2 -40 -30 0 -16 -4 -30 -10 -30 -5 0 -10 19 -10 42 0 32 6
49 27 70 15 15 29 28 32 28 3 0 18 -12 33 -27z"></path>
    </g>
  </symbol>
  <symbol version="1.0" xmlns="http://www.w3.org/2000/svg" preserveAspectRatio="xMidYMid meet" viewBox="0 0 24.000000 24.000000" id="information-24">
    <g transform="translate(0.000000,24.000000) scale(0.100000,-0.100000)" fill="#0000ff" stroke="none">
      <path d="M94 206 c-10 -26 4 -48 28 -44 17 2 23 10 23 28 0 18 -6 26 -23 28
-13 2 -25 -3 -28 -12z m36 -16 c0 -5 -4 -10 -10 -10 -5 0 -10 5 -10 10 0 6 5
10 10 10 6 0 10 -4 10 -10z"></path>
      <path d="M85 80 l0 -60 36 0 37 0 -5 48 c-7 67 -9 72 -40 72 -28 0 -28 -1 -28
-60z m45 0 c0 -22 -4 -40 -10 -40 -5 0 -10 18 -10 40 0 22 5 40 10 40 6 0 10
-18 10 -40z"></path>
    </g>
  </symbol>
  <symbol version="1.0" xmlns="http://www.w3.org/2000/svg" preserveAspectRatio="xMidYMid meet" viewBox="0 0 48.000000 48.000000" id="home-48">
    <g transform="translate(0.000000,48.000000) scale(0.100000,-0.100000)" fill="#000000" stroke="none">
      <path d="M128 338 c-94 -86 -100 -93 -75 -96 l27 -3 0 -90 0 -89 60 0 60 0 0
60 0 60 40 0 40 0 0 -60 0 -60 60 0 60 0 0 90 0 90 27 0 27 0 -37 38 c-31 31
-37 45 -37 80 0 35 -3 42 -20 42 -15 0 -20 -7 -20 -27 l0 -27 -43 42 c-23 23
-48 42 -55 42 -7 0 -58 -42 -114 -92z m173 -9 l59 -51 0 -89 c0 -82 -1 -89
-20 -89 -18 0 -20 7 -20 60 l0 60 -80 0 -80 0 0 -60 c0 -53 -2 -60 -20 -60
-18 0 -20 7 -20 88 l-1 87 58 52 c32 29 60 53 62 53 2 0 30 -23 62 -51z"></path>
    </g>
  </symbol>
  <symbol version="1.0" xmlns="http://www.w3.org/2000/svg" preserveAspectRatio="xMidYMid meet" viewBox="0 0 48.000000 48.000000" id="information-48">
    <g transform="translate(0.000000,48.000000) scale(0.100000,-0.100000)" fill="#000000" stroke="none">
      <path d="M200 420 c-11 -11 -20 -29 -20 -40 0 -26 34 -60 60 -60 26 0 60 34
60 60 0 11 -9 29 -20 40 -11 11 -29 20 -40 20 -11 0 -29 -9 -40 -20z m56 -31
c10 -17 -13 -36 -27 -22 -12 12 -4 33 11 33 5 0 12 -5 16 -11z"></path>
      <path d="M160 260 c0 -11 5 -20 10 -20 6 0 10 -33 10 -80 0 -47 -4 -80 -10
-80 -5 0 -10 -9 -10 -20 0 -18 7 -20 80 -20 73 0 80 2 80 20 0 11 -4 20 -10
20 -6 0 -10 36 -10 88 0 55 -4 92 -12 100 -7 7 -38 12 -70 12 -51 0 -58 -2
-58 -20z m100 -100 c0 -73 -2 -80 -20 -80 -18 0 -20 7 -20 80 0 73 2 80 20 80
18 0 20 -7 20 -80z"></path>
    </g>
  </symbol>
</svg>
<svg class="icon">
  <use xlink:href="#instagram"></use>
</svg><svg class="icon">
  <use xlink:href="#phone-24"></use>
</svg><svg class="icon">
  <use xlink:href="#phone-48"></use>
</svg><svg class="icon">
  <use xlink:href="#puppy"></use>
</svg><svg class="icon">
  <use xlink:href="#question-mark-24"></use>
</svg><svg class="icon">
  <use xlink:href="#question-mark-48"></use>
</svg><svg class="icon">
  <use xlink:href="#shoppingcart"></use>
</svg><svg class="icon">
  <use xlink:href="#sprite"></use>
</svg><svg class="icon">
  <use xlink:href="#tiktok"></use>
</svg><svg class="icon">
  <use xlink:href="#Why-adoptions"></use>
</svg><svg class="icon">
  <use xlink:href="#twitter"></use>
</svg><svg class="icon">
  <use xlink:href="#arrow-50"></use>
</svg><svg class="icon">
  <use xlink:href="#chevron"></use>
</svg><svg class="icon">
  <use xlink:href="#dog-40"></use>
</svg><svg class="icon">
  <use xlink:href="#dropdown"></use>
</svg><svg class="icon">
  <use xlink:href="#facebook"></use>
</svg><svg class="icon">
  <use xlink:href="#home-24"></use>
</svg><svg class="icon">
  <use xlink:href="#information-24"></use>
</svg><svg class="icon">
  <use xlink:href="#home-48"></use>
</svg><svg class="icon">
  <use xlink:href="#information-48"></use>
</svg>